<svg width="247" height="257" viewBox="0 0 247 257" fill="none" xmlns="http://www.w3.org/2000/svg">
<path d="M0.111855 46.6389C0.0425562 45.9333 0.351986 45.2438 0.925165 44.8265L61.5759 0.672728C62.1485 0.255881 62.8989 0.172953 63.5487 0.454709L245.739 79.4532C246.499 79.7826 246.977 80.546 246.942 81.3732L242.031 196.773C242.011 197.243 241.826 197.69 241.51 198.037L232.023 208.427C231.687 208.796 231.5 209.277 231.5 209.776V217.247C231.5 217.732 231.323 218.201 231.003 218.566L214.556 237.298C213.939 238.001 212.916 238.182 212.095 237.734L209.4 236.264C208.581 235.817 207.562 235.996 206.944 236.695L190.085 255.772C189.454 256.486 188.407 256.656 187.583 256.177L174.496 248.578C173.879 248.22 173.5 247.561 173.5 246.849V246.68C173.5 245.952 173.105 245.281 172.468 244.929L27.9161 165.007C27.3736 164.707 26.6981 164.802 26.2598 165.24C25.8123 165.688 25.119 165.777 24.573 165.457L11.8794 158.015C11.3269 157.692 10.963 157.123 10.9004 156.486L0.111855 46.6389Z" fill="#FAB02E" fill-opacity="0.3"/>
</svg>
