<svg width="149" height="174" viewBox="0 0 149 174" fill="none" xmlns="http://www.w3.org/2000/svg">
<path d="M0.991122 33.3834C0.996777 32.8207 1.23923 32.2864 1.65899 31.9116L13.4717 21.3645C14.2551 20.6651 14.1874 19.4196 13.3328 18.8091C12.4277 18.1626 12.4161 16.8214 13.3099 16.1593L24.1031 8.16437C24.6606 7.75143 25.3922 7.65688 26.0363 7.91453L28.9931 9.09724C29.6212 9.34847 30.3337 9.26519 30.8869 8.8759L42.692 0.568621C43.2013 0.210216 43.8485 0.10952 44.4426 0.296246L96 16.5L146.954 32.514C147.855 32.7973 148.435 33.6729 148.345 34.6134L138.574 136.231C138.526 136.726 138.296 137.185 137.928 137.52L133.655 141.405C133.238 141.784 133 142.321 133 142.885V149.194C133 149.711 132.8 150.208 132.442 150.581L121.52 161.939C120.913 162.57 119.967 162.733 119.184 162.342L116.842 161.171C116.047 160.773 115.085 160.949 114.48 161.601L103.972 172.95C103.391 173.578 102.474 173.766 101.692 173.419L90.1747 168.3C89.7644 168.118 89.5 167.711 89.5 167.262C89.5 166.801 89.2217 166.386 88.7955 166.211L62.7322 155.506C61.9859 155.2 61.1286 155.371 60.5581 155.942L52.4488 164.051C51.8749 164.625 51.011 164.795 50.2623 164.482L31.2277 156.514C30.4841 156.203 30 155.475 30 154.669V145.354C30 144.536 29.5021 143.801 28.7428 143.497L1.27087 132.508C0.504746 132.202 0.00546332 131.456 0.0137558 130.631L0.991122 33.3834Z" fill="#FAB02E" fill-opacity="0.3"/>
</svg>
