<svg width="32" height="32" viewBox="0 0 32 32" fill="none" xmlns="http://www.w3.org/2000/svg">
<path d="M22.9346 13.333H9.06797C6.82776 13.333 5.70765 13.333 4.85201 13.769C4.09936 14.1525 3.48744 14.7644 3.10394 15.517C2.66797 16.3727 2.66797 17.4928 2.66797 19.733V23.333C2.66797 23.9526 2.66797 24.2623 2.71921 24.5199C2.92963 25.5778 3.75655 26.4047 4.8144 26.6151C5.07199 26.6663 5.38176 26.6663 6.0013 26.6663H6.66797C8.14073 26.6663 9.33464 25.4724 9.33464 23.9997C9.33464 23.6315 9.63311 23.333 10.0013 23.333H22.0013C22.3695 23.333 22.668 23.6315 22.668 23.9997C22.668 25.4724 23.8619 26.6663 25.3346 26.6663H26.0013C26.6208 26.6663 26.9306 26.6663 27.1882 26.6151C28.2461 26.4047 29.073 25.5778 29.2834 24.5199C29.3346 24.2623 29.3346 23.9526 29.3346 23.333V19.733C29.3346 17.4928 29.3346 16.3727 28.8987 15.517C28.5152 14.7644 27.9033 14.1525 27.1506 13.769C26.295 13.333 25.1749 13.333 22.9346 13.333Z" fill="#09301D" stroke="#09301D" stroke-linecap="round" stroke-linejoin="round"/>
<path d="M2.66797 11.9997L5.33464 13.333L7.02883 8.25044C7.37852 7.20134 7.55337 6.6768 7.87769 6.28898C8.16408 5.94652 8.53186 5.68144 8.94731 5.51804C9.41778 5.33301 9.9707 5.33301 11.0765 5.33301H20.9261C22.0319 5.33301 22.5848 5.33301 23.0553 5.51804C23.4708 5.68144 23.8385 5.94652 24.1249 6.28898C24.4492 6.6768 24.6241 7.20134 24.9738 8.25044L26.668 13.333L29.3346 11.9997" stroke="#09301D" stroke-width="2" stroke-linecap="round" stroke-linejoin="round"/>
<path d="M5.33203 17.3333C5.33203 16.597 5.92898 16 6.66536 16H10.6654C11.4017 16 11.9987 16.597 11.9987 17.3333C11.9987 18.0697 11.4017 18.6667 10.6654 18.6667H6.66536C5.92898 18.6667 5.33203 18.0697 5.33203 17.3333Z" fill="white"/>
<path d="M19.9987 17.3333C19.9987 16.597 20.5956 16 21.332 16H25.332C26.0684 16 26.6654 16.597 26.6654 17.3333C26.6654 18.0697 26.0684 18.6667 25.332 18.6667H21.332C20.5956 18.6667 19.9987 18.0697 19.9987 17.3333Z" fill="white"/>
</svg>
