<svg width="32" height="32" viewBox="0 0 32 32" fill="none" xmlns="http://www.w3.org/2000/svg">
<path fill-rule="evenodd" clip-rule="evenodd" d="M2 14.0615C2 9.8396 2 7.72864 2.82164 6.11607C3.54438 4.69762 4.69762 3.54438 6.11607 2.82164C7.72864 2 9.8396 2 14.0615 2H17.9385C22.1604 2 24.2714 2 25.8839 2.82164C27.3024 3.54438 28.4556 4.69762 29.1784 6.11607C30 7.72864 30 9.8396 30 14.0615V17.9385C30 22.1604 30 24.2714 29.1784 25.8839C28.4556 27.3024 27.3024 28.4556 25.8839 29.1784C24.2714 30 22.1604 30 17.9385 30H14.0615C9.8396 30 7.72864 30 6.11607 29.1784C4.69762 28.4556 3.54438 27.3024 2.82164 25.8839C2 24.2714 2 22.1604 2 17.9385V14.0615ZM16 8C11.582 8 8 11.582 8 16C8 20.418 11.582 24 16 24C20.418 24 24 20.418 24 16C24 11.582 20.418 8 16 8ZM16 21.1931C13.1321 21.1931 10.8069 18.8679 10.8069 16C10.8069 13.1321 13.1321 10.8069 16 10.8069C18.8679 10.8069 21.1931 13.1321 21.1931 16C21.1931 18.8679 18.8679 21.1931 16 21.1931ZM26 7.68C26 8.60784 25.2478 9.36 24.32 9.36C23.3922 9.36 22.64 8.60784 22.64 7.68C22.64 6.75216 23.3922 6 24.32 6C25.2478 6 26 6.75216 26 7.68Z" fill="white"/>
</svg>
