<svg width="211" height="62" viewBox="0 0 211 62" fill="none" xmlns="http://www.w3.org/2000/svg">
<path d="M19.0371 59.2113C22.148 56.2507 22.9796 52.4478 21.5013 48.5214C21.487 48.4855 21.4748 48.4515 21.4605 48.4169C21.4605 48.4134 21.4585 48.4113 21.4569 48.4071C21.4426 48.369 21.4283 48.3308 21.4119 48.2935C21.4119 48.2913 21.4098 48.287 21.4098 48.2849C21.3961 48.2488 21.3818 48.215 21.3654 48.1811C21.3632 48.1713 21.359 48.1628 21.3554 48.153C20.8095 46.8438 20.0103 45.6132 18.9578 44.5365L9.58393 34.9397L0.718115 25.8633C-0.669276 27.1823 0.172939 31.0867 1.39353 32.3421C2.75226 33.7365 4.10968 35.1275 5.4684 36.515L5.48048 36.5106L8.70961 39.8051C11.1536 42.3067 13.5971 44.8089 16.0435 47.3106C19.7126 51.0667 22.1037 56.4667 16.6151 60.0055C15.1933 60.9241 13.4798 61.2305 11.8284 61.2002C9.43727 61.1564 7.0625 60.2194 5.28149 58.3963C4.5174 57.614 5.58422 57.2793 4.57608 56.2507C4.08737 55.7486 3.14786 55.6823 2.58846 56.2126C2.02822 56.7449 2.06113 57.6741 2.55189 58.1761C3.56354 59.2147 4.00367 58.2404 4.69768 58.9506C6.63451 60.9318 9.21473 61.9529 11.8148 61.9987C14.4129 62.0467 17.0293 61.1203 19.0371 59.2113Z" fill="white"/>
<path d="M13.0679 29.767L9.9811 26.6067L1.11601 17.5303C-0.271241 18.8493 0.572294 22.7558 1.7936 24.0091C3.1503 25.4035 4.50903 26.7945 5.8657 28.1841L5.87776 28.1776L8.05223 30.3954L13.0679 29.767Z" fill="white"/>
<path d="M11.356 28.0303L10.6719 27.332L5.65625 27.9604L6.15784 28.4708L9.5444 31.9369H9.55068L13.8724 36.3625L22.7404 45.4389C24.1271 44.1199 23.2834 40.2134 22.0628 38.9601C20.7055 37.5648 19.3468 36.1739 17.9879 34.7852L17.9781 34.7909L14.7469 31.4971L11.3597 28.0281L11.356 28.0303Z" fill="white"/>
<path d="M4.06961 2.79137C0.958564 5.75178 0.126469 9.55252 1.60544 13.481C1.61971 13.5148 1.63178 13.5487 1.64626 13.5847C1.64626 13.589 1.64784 13.5911 1.64972 13.5954C1.664 13.6328 1.67826 13.6709 1.69479 13.709C1.69479 13.7112 1.69636 13.7132 1.69636 13.7168C1.71048 13.7513 1.72488 13.7874 1.73921 13.8214C1.74345 13.8312 1.74721 13.839 1.75144 13.8474C2.29737 15.1564 3.09598 16.3871 4.14918 17.466L13.523 27.0628L22.3887 36.1392C23.7753 34.8202 22.934 30.9156 21.7132 29.6603C20.3538 28.2651 18.9973 26.8742 17.6385 25.4875L17.6265 25.4917L14.3973 22.1973C11.951 19.6957 9.50983 17.1934 7.06351 14.6919C3.39442 10.9327 1.0031 5.53491 6.4917 1.99465C7.91349 1.07879 9.62704 0.771259 11.2778 0.801579C13.669 0.843445 16.0445 1.78267 17.8253 3.60588C18.5894 4.38846 17.5226 4.72302 18.5309 5.75178C19.0194 6.25382 19.9589 6.32009 20.5185 5.78774C21.078 5.25538 21.0458 4.32637 20.5549 3.82405C19.5432 2.78733 19.1025 3.76197 18.4091 3.05142C16.4723 1.07013 13.8922 0.0493043 11.2942 0.0016496C8.69616 -0.0445502 6.07746 0.879538 4.0698 2.79137H4.06961Z" fill="white"/>
<path d="M39.7969 33.0313L39.8343 28.0565L40.1216 28.1058C40.463 29.3699 40.8709 30.3633 41.3455 31.0898C42.2322 32.432 43.3521 33.1052 44.6968 33.1052C45.6376 33.1052 46.4119 32.7973 47.0239 32.1775C47.6359 31.5619 47.9397 30.7779 47.9397 29.8338C47.9397 29.4234 47.8731 29.0046 47.7357 28.5819C47.6025 28.155 47.4236 27.7897 47.1946 27.486C46.9572 27.174 46.6242 26.8743 46.1955 26.583C45.7666 26.2956 45.113 25.9303 44.2305 25.487C43.452 25.1052 42.8608 24.7768 42.4487 24.5142C42.0365 24.2474 41.7035 23.9806 41.4496 23.7097C40.746 22.9544 40.3963 22.035 40.3963 20.9514C40.3963 20.2864 40.5337 19.6461 40.8084 19.0263C41.0791 18.4106 41.4621 17.8811 41.9533 17.4378C42.8192 16.6538 43.8475 16.2598 45.0297 16.2598C45.417 16.2598 45.7708 16.2967 46.0996 16.3706C46.4244 16.4486 46.8616 16.5963 47.4111 16.8221C47.819 16.9822 48.098 17.0848 48.2436 17.1258C48.3935 17.171 48.5226 17.1915 48.6392 17.1915C48.9222 17.1915 49.1137 16.9904 49.2137 16.58H49.4884L49.5633 21.3577H49.2886C49.0679 20.5943 48.8806 20.0073 48.7182 19.6009C48.56 19.1946 48.3727 18.8211 48.152 18.4763C47.7524 17.8483 47.3111 17.3844 46.8324 17.0806C46.3495 16.781 45.7958 16.6291 45.1671 16.6291C44.2554 16.6291 43.5352 16.9329 43.0024 17.5445C42.7818 17.7949 42.6111 18.0905 42.4862 18.427C42.3571 18.7636 42.2947 19.1002 42.2947 19.4409C42.2947 20.7831 43.1689 21.8626 44.9215 22.6835L46.6409 23.5045C47.9689 24.1243 48.9264 24.8097 49.5092 25.5567C50.1794 26.3941 50.5125 27.3669 50.5125 28.4752C50.5125 29.2099 50.3627 29.9118 50.0588 30.5808C49.6341 31.5126 48.9971 32.235 48.152 32.7399C47.3028 33.2447 46.3037 33.4993 45.1505 33.4993C44.0972 33.4993 43.0857 33.294 42.1157 32.8794C41.6078 32.6578 41.308 32.5346 41.2081 32.5018C41.1124 32.4689 40.9999 32.4525 40.8792 32.4525C40.4879 32.4525 40.2173 32.6454 40.0716 33.0313H39.7969ZM69.1296 33.1052H61.1074V32.8342C61.8318 32.7686 62.3396 32.6496 62.6227 32.4731C63.1265 32.1612 63.3805 31.726 63.3805 31.1719C63.3805 30.8436 63.268 30.4043 63.0391 29.8502L62.8309 29.3453L61.6611 26.5049H56.2825L55.6456 28.1673L55.3375 28.9103C54.9711 29.7928 54.788 30.4864 54.788 30.9913C54.788 31.2909 54.8546 31.5659 54.9919 31.8245C55.1252 32.079 55.3041 32.2884 55.5331 32.4484C55.8536 32.666 56.2617 32.7932 56.7612 32.8342V33.1052H51.291V32.8342C51.7239 32.8097 52.0986 32.707 52.4274 32.5223C52.7522 32.3377 53.0686 32.0379 53.3766 31.6316C53.6389 31.3033 53.8929 30.8763 54.1427 30.3592C54.3883 29.842 54.7172 29.0662 55.121 28.0318L59.5838 16.6784H60.2831L65.6035 29.3289C66.0032 30.2853 66.3196 30.9667 66.5568 31.3771C66.79 31.7876 67.0481 32.0955 67.3229 32.3048C67.5185 32.4485 67.7433 32.5593 67.9931 32.6373C68.247 32.7111 68.6259 32.7768 69.1296 32.8342V33.1052ZM61.4696 26.0124L58.9093 19.7733L56.4781 26.0124H61.4696ZM68.4344 16.6784H76.4857V16.9494C75.8778 17.0068 75.4365 17.0971 75.1701 17.2285C74.9162 17.3475 74.7122 17.5322 74.5581 17.7867C74.4041 18.0412 74.325 18.3162 74.325 18.6117C74.325 18.8211 74.3458 19.0057 74.3875 19.1659C74.4291 19.33 74.5499 19.6789 74.7538 20.2166L78.3674 29.9036L81.8726 21.407C82.3597 20.2125 82.6053 19.3383 82.6053 18.7923C82.6053 18.4886 82.5553 18.2012 82.4596 17.9386C82.3597 17.6718 82.2306 17.4666 82.0682 17.3228C81.9059 17.1875 81.7269 17.0889 81.5313 17.0356C81.3356 16.978 81.0816 16.9494 80.7736 16.9494V16.6784H86.1938V16.9494C85.7484 16.9904 85.3571 17.0971 85.0282 17.2737C84.6993 17.4501 84.3829 17.721 84.0832 18.0822C83.8792 18.3408 83.6668 18.6897 83.4421 19.1371C83.2173 19.5804 82.9134 20.27 82.522 21.2017L77.5264 33.1052H77.0019L72.1561 20.8077C71.5234 19.1905 71.0112 18.1684 70.6324 17.7333C70.3868 17.4583 70.0871 17.2613 69.7332 17.1382C69.3794 17.0109 68.9464 16.9494 68.4344 16.9494V16.6784ZM91.6058 25.0765V29.333C91.6058 30.154 91.6516 30.7615 91.7473 31.1555C91.8431 31.5536 92.0137 31.882 92.2677 32.1365C92.4883 32.3622 92.7465 32.5265 93.0379 32.6373C93.3293 32.744 93.7082 32.8097 94.1869 32.8342V33.1052H86.3979V32.8342C86.8683 32.8097 87.2471 32.744 87.5385 32.6373C87.8258 32.5265 88.0797 32.3622 88.3004 32.1365C88.5585 31.8779 88.7333 31.5536 88.8249 31.1596C88.9123 30.7655 88.9581 30.1581 88.9581 29.3289V20.4547C88.9581 19.6255 88.9123 19.0181 88.8249 18.624C88.7333 18.23 88.5585 17.9057 88.3004 17.6471C88.0797 17.4132 87.8258 17.2449 87.5302 17.1423C87.2388 17.0396 86.8599 16.9739 86.3979 16.9494V16.6784H92.2802C93.2627 16.6784 93.908 16.6825 94.2202 16.6908C95.4816 16.7482 96.4682 16.9165 97.1842 17.1956C97.9919 17.5158 98.6164 17.996 99.0576 18.6363C99.503 19.2726 99.7237 20.0155 99.7237 20.8569C99.7237 22.1089 99.245 23.1104 98.2833 23.8657C97.9918 24.0914 97.6672 24.2761 97.3133 24.4198C96.9595 24.5634 96.4849 24.703 95.8937 24.8303C96.3724 25.0314 96.7305 25.2407 96.9595 25.4542C97.1468 25.6224 97.3133 25.8359 97.4674 26.0863C97.6172 26.3408 97.8462 26.7882 98.15 27.4284C98.8745 28.8979 99.4198 29.9733 99.7903 30.6506C100.161 31.3279 100.473 31.8204 100.723 32.1241C100.927 32.3746 101.122 32.547 101.314 32.6414C101.505 32.7399 101.768 32.8014 102.101 32.8342V33.1052H98.0751C97.8712 32.666 97.7421 32.3827 97.6838 32.2637L96.8304 30.351C96.3142 29.2058 95.798 28.192 95.2776 27.3136C94.7572 26.4392 94.2785 25.84 93.8455 25.5198C93.6249 25.3597 93.3875 25.2448 93.1378 25.1792C92.8838 25.1094 92.5716 25.0765 92.2052 25.0765H91.6058ZM91.6058 24.8056H92.0721C93.0878 24.8056 93.8164 24.7482 94.2535 24.6373C94.6906 24.5224 95.1027 24.2926 95.4857 23.9395C96.3475 23.1351 96.7763 22.1376 96.7763 20.9514C96.7763 20.3151 96.6514 19.72 96.4016 19.1617C96.1518 18.6035 95.8063 18.1438 95.365 17.7826C95.0195 17.5076 94.6115 17.3188 94.1369 17.212C93.6623 17.1013 92.9837 17.0479 92.1096 17.0479H91.6058V24.8056ZM125.793 33.1052H117.77V32.8342C118.495 32.7686 119.003 32.6496 119.286 32.4731C119.789 32.1612 120.043 31.726 120.043 31.1719C120.043 30.8436 119.931 30.4043 119.702 29.8502L119.494 29.3453L118.324 26.5049H112.945L112.309 28.1673L112 28.9103C111.634 29.7928 111.451 30.4864 111.451 30.9913C111.451 31.2909 111.518 31.5659 111.655 31.8245C111.788 32.079 111.967 32.2884 112.196 32.4484C112.517 32.666 112.925 32.7932 113.424 32.8342V33.1052H107.954V32.8342C108.387 32.8097 108.762 32.707 109.09 32.5223C109.415 32.3377 109.732 32.0379 110.04 31.6316C110.302 31.3033 110.556 30.8763 110.806 30.3592C111.051 29.842 111.38 29.0662 111.784 28.0318L116.247 16.6784H116.946L122.266 29.3289C122.666 30.2853 122.983 30.9667 123.22 31.3771C123.453 31.7876 123.711 32.0955 123.986 32.3048C124.181 32.4485 124.406 32.5593 124.656 32.6373C124.91 32.7111 125.289 32.7768 125.793 32.8342V33.1052ZM118.133 26.0124L115.572 19.7733L113.141 26.0124H118.133ZM125.097 16.6784H133.149V16.9494C132.541 17.0068 132.1 17.0971 131.833 17.2285C131.579 17.3475 131.375 17.5322 131.221 17.7867C131.067 18.0412 130.988 18.3162 130.988 18.6117C130.988 18.8211 131.009 19.0057 131.051 19.1659C131.092 19.33 131.213 19.6789 131.417 20.2166L135.03 29.9036L138.536 21.407C139.023 20.2125 139.268 19.3383 139.268 18.7923C139.268 18.4886 139.218 18.2012 139.123 17.9386C139.023 17.6718 138.894 17.4666 138.731 17.3228C138.569 17.1875 138.39 17.0889 138.194 17.0356C137.999 16.978 137.745 16.9494 137.437 16.9494V16.6784H142.857V16.9494C142.411 16.9904 142.02 17.0971 141.691 17.2737C141.362 17.4501 141.046 17.721 140.746 18.0822C140.542 18.3408 140.33 18.6897 140.105 19.1371C139.88 19.5804 139.576 20.27 139.185 21.2017L134.189 33.1052H133.665L128.819 20.8077C128.186 19.1905 127.674 18.1684 127.295 17.7333C127.05 17.4583 126.75 17.2613 126.396 17.1382C126.042 17.0109 125.609 16.9494 125.097 16.9494V16.6784ZM156.162 16.6784L156.362 20.6559L156.087 20.6681C155.983 19.9909 155.808 19.4326 155.562 18.9894C155.317 18.5501 154.963 18.1561 154.501 17.8195C154.118 17.5404 153.664 17.3393 153.144 17.2244C152.623 17.1053 151.928 17.0479 151.066 17.0479H148.269V24.2884H149.006C149.751 24.2884 150.309 24.2391 150.683 24.1448C151.062 24.0462 151.366 23.878 151.603 23.6276C151.832 23.3977 152.003 23.1227 152.115 22.8067C152.224 22.4906 152.315 22.0227 152.39 21.407L152.665 21.4193L152.615 27.8594H152.34C152.265 27.2397 152.157 26.743 152.016 26.3654C151.874 25.9877 151.674 25.6676 151.42 25.4049C151.175 25.1463 150.858 24.9575 150.463 24.8385C150.071 24.7194 149.572 24.6579 148.968 24.6579H148.269V27.4121C148.269 28.508 148.298 29.3084 148.356 29.8092C148.41 30.31 148.523 30.7286 148.685 31.0652C148.964 31.6398 149.389 32.0626 149.959 32.3335C150.529 32.6003 151.283 32.7358 152.215 32.7358C153.189 32.7358 154.005 32.6127 154.663 32.3705C155.321 32.1242 155.854 31.7466 156.27 31.2335C156.562 30.8887 156.799 30.4946 156.982 30.0555C157.161 29.6163 157.332 29.0334 157.486 28.311L157.76 28.3233L157.611 33.1052H143.048V32.8342C143.515 32.8097 143.893 32.744 144.181 32.6414C144.472 32.5387 144.73 32.3705 144.959 32.1365C145.213 31.8779 145.388 31.5495 145.48 31.1555C145.575 30.7574 145.621 30.1498 145.621 29.3289V20.4547C145.621 19.6338 145.575 19.0263 145.48 18.6282C145.388 18.23 145.213 17.9057 144.959 17.6471C144.739 17.4132 144.485 17.2449 144.193 17.1423C143.906 17.0396 143.523 16.9739 143.048 16.9494V16.6784H156.162ZM161.657 18.8539V29.3289C161.657 30.1581 161.703 30.7655 161.799 31.1596C161.89 31.5536 162.065 31.8779 162.315 32.1365C162.544 32.3705 162.802 32.5387 163.089 32.6414C163.381 32.744 163.755 32.8097 164.217 32.8342V33.1052H158.597V32.8342C159.059 32.8097 159.434 32.744 159.725 32.6414C160.013 32.5387 160.271 32.3705 160.5 32.1365C160.75 31.8779 160.924 31.5495 161.016 31.1555C161.112 30.7574 161.158 30.1498 161.158 29.3289V20.4424C161.158 19.6296 161.112 19.0263 161.016 18.6282C160.924 18.23 160.75 17.9057 160.5 17.6471C160.279 17.4132 160.025 17.2449 159.738 17.1423C159.447 17.0396 159.068 16.9739 158.597 16.9494V16.6784H163.293L173.197 29.1484V20.4547C173.197 19.6255 173.151 19.0181 173.055 18.624C172.964 18.23 172.789 17.9057 172.539 17.6471C172.31 17.4132 172.052 17.2449 171.765 17.1423C171.474 17.0396 171.099 16.9739 170.637 16.9494V16.6784H176.257V16.9494C175.445 16.9494 174.812 17.1833 174.354 17.6471C174.105 17.9057 173.93 18.23 173.838 18.6282C173.742 19.0263 173.697 19.6296 173.697 20.4424V33.1052H173.147L161.657 18.8539ZM185.091 16.6784V16.9494C184.625 16.9739 184.246 17.0396 183.95 17.1423C183.659 17.2449 183.401 17.4132 183.184 17.6471C182.913 17.9181 182.734 18.2546 182.651 18.6568C182.564 19.0592 182.522 19.7487 182.522 20.7256V27.5352C182.522 28.6435 182.564 29.4439 182.651 29.9364C182.734 30.429 182.909 30.8846 183.172 31.2992C183.563 31.9354 184.046 32.3951 184.616 32.6783C185.191 32.9616 185.915 33.1052 186.789 33.1052C187.634 33.1052 188.442 32.978 189.212 32.7276C189.982 32.4731 190.623 32.1241 191.14 31.6726C191.456 31.3935 191.689 31.0898 191.839 30.7574C191.993 30.429 192.093 30.0144 192.139 29.5096C192.172 29.1812 192.189 28.4013 192.189 27.174V20.4506C192.189 19.6255 192.143 19.014 192.047 18.6199C191.956 18.23 191.781 17.9057 191.527 17.6471C191.302 17.4132 191.044 17.2449 190.752 17.1423C190.465 17.0396 190.086 16.9739 189.624 16.9494V16.6784H195.249V16.9494C194.787 16.9739 194.412 17.0356 194.12 17.1423C193.833 17.2449 193.575 17.4132 193.346 17.6471C193.096 17.9016 192.921 18.23 192.83 18.6282C192.734 19.0222 192.688 19.6296 192.688 20.4506V28.0401C192.688 29.1606 192.601 29.9898 192.426 30.5234C192.251 31.057 191.906 31.5414 191.385 31.9846C190.199 32.9944 188.504 33.4993 186.298 33.4993C184 33.4993 182.306 33.0231 181.215 32.0667C180.507 31.4592 180.087 30.6548 179.949 29.6614C179.899 29.3084 179.875 28.6722 179.875 27.7487V20.4506C179.875 19.6215 179.829 19.014 179.741 18.6199C179.65 18.23 179.475 17.9016 179.217 17.6471C178.996 17.4132 178.742 17.2449 178.455 17.1423C178.163 17.0356 177.785 16.9739 177.314 16.9494V16.6784H185.091ZM209.399 16.6784L209.599 20.6559L209.324 20.6681C209.22 19.9909 209.045 19.4326 208.799 18.9894C208.554 18.5501 208.2 18.1561 207.738 17.8195C207.355 17.5404 206.901 17.3393 206.381 17.2244C205.86 17.1053 205.165 17.0479 204.303 17.0479H201.506V24.2884H202.242C202.988 24.2884 203.545 24.2391 203.92 24.1448C204.299 24.0462 204.603 23.878 204.84 23.6276C205.069 23.3977 205.24 23.1227 205.352 22.8067C205.461 22.4906 205.552 22.0227 205.627 21.407L205.902 21.4193L205.852 27.8594H205.577C205.502 27.2397 205.394 26.743 205.252 26.3654C205.111 25.9877 204.911 25.6676 204.657 25.4049C204.411 25.1463 204.095 24.9575 203.7 24.8385C203.308 24.7194 202.809 24.6579 202.205 24.6579H201.506V27.4121C201.506 28.508 201.535 29.3084 201.593 29.8092C201.647 30.31 201.76 30.7286 201.922 31.0652C202.201 31.6398 202.625 32.0626 203.196 32.3335C203.766 32.6003 204.52 32.7358 205.452 32.7358C206.426 32.7358 207.242 32.6127 207.9 32.3705C208.558 32.1242 209.091 31.7466 209.507 31.2335C209.798 30.8887 210.036 30.4946 210.219 30.0555C210.398 29.6163 210.569 29.0334 210.723 28.311L210.997 28.3233L210.848 33.1052H196.285V32.8342C196.751 32.8097 197.13 32.744 197.418 32.6414C197.709 32.5387 197.967 32.3705 198.196 32.1365C198.45 31.8779 198.625 31.5495 198.716 31.1555C198.812 30.7574 198.858 30.1498 198.858 29.3289V20.4547C198.858 19.6338 198.812 19.0263 198.716 18.6282C198.625 18.23 198.45 17.9057 198.196 17.6471C197.975 17.4132 197.721 17.2449 197.43 17.1423C197.143 17.0396 196.76 16.9739 196.285 16.9494V16.6784H209.399Z" fill="white"/>
<path d="M70.5268 48.4366V48.12H70.848C71.1691 48.12 71.3467 48.0447 71.3806 47.8939C71.4165 47.7431 71.4336 47.2381 71.4336 46.3807V45.6063H71.2238C70.863 45.9605 70.2548 46.7331 69.3973 47.9297C69.2292 48.1615 69.1045 48.3292 69.0194 48.4366C68.7644 48.4139 68.5698 48.4027 68.4338 48.4027C68.3602 48.4027 68.1334 48.4139 67.75 48.4366V48.12C67.9238 48.0974 68.1089 48.0014 68.3072 47.8336C68.5037 47.6659 68.8551 47.2589 69.3575 46.6106C69.8865 45.9285 70.2642 45.465 70.489 45.2219C69.7032 44.5039 69.1705 44.0423 68.8891 43.8369C68.6058 43.6315 68.3923 43.5297 68.2449 43.5297H68.0674V43.2131H69.1119C69.2234 43.3206 69.4557 43.5674 69.8148 43.9574C70.3455 44.5322 70.848 45.0258 71.324 45.4423H71.4336V44.7376C71.4336 44.1609 71.4092 43.8161 71.358 43.7011C71.3089 43.5862 71.1502 43.5297 70.8819 43.5297H70.4816V43.2131C70.9481 43.2357 71.4128 43.247 71.8756 43.247C72.3498 43.247 72.8144 43.2357 73.2697 43.2131V43.5297H72.8711C72.6085 43.5297 72.4536 43.5862 72.4045 43.6993C72.3535 43.8105 72.3289 44.1572 72.3289 44.7376V45.4423H72.4348C72.8164 45.1408 73.3226 44.6453 73.9478 43.9574C74.3029 43.5711 74.5354 43.3243 74.6449 43.2131H75.6952V43.5297H75.5119C75.3835 43.5297 75.17 43.6371 74.8716 43.8519C74.5731 44.0649 74.0403 44.5209 73.2716 45.218C73.5794 45.561 73.961 46.0246 74.4144 46.6106C74.9339 47.2833 75.2853 47.6979 75.4665 47.8525C75.6498 48.0088 75.8275 48.0974 76.0012 48.12V48.4366C75.9975 48.4366 75.92 48.4309 75.7689 48.4215C75.5686 48.4083 75.427 48.4027 75.3457 48.4027C75.2059 48.4027 75.0114 48.4139 74.7621 48.4366C74.6619 48.3123 74.5258 48.1294 74.3521 47.89C73.4246 46.5993 72.8201 45.8381 72.5386 45.6063H72.3289V46.3807C72.3289 47.2307 72.3459 47.7338 72.378 47.8882C72.4121 48.0428 72.5896 48.12 72.9089 48.12H73.2358V48.4366L72.9372 48.4309C72.3346 48.412 71.9833 48.4027 71.885 48.4027C71.4297 48.4159 70.9784 48.4271 70.5268 48.4366ZM84.9213 43.2131V43.5297H84.5283C84.1958 43.5297 84.0221 43.6276 84.0051 43.8255C83.9898 44.0215 83.9806 44.6867 83.9806 45.8192L83.9919 47.1269C83.9957 47.5678 84.0032 47.8185 84.0145 47.877C84.0261 47.9353 84.0675 47.9919 84.1392 48.0428C84.2111 48.0937 84.3414 48.12 84.5284 48.12H84.9213V48.4366C84.332 48.4139 83.82 48.4027 83.3893 48.4027C83.0114 48.4027 82.5827 48.4139 82.0991 48.4366V48.12H82.4977C82.7414 48.12 82.8925 48.0748 82.951 47.9825C83.0096 47.89 83.0398 47.5886 83.0398 47.0779V44.6471C83.0398 44.2759 83.0681 43.9914 83.123 43.7936C82.9907 43.9951 82.8604 44.1873 82.7301 44.3663C82.5505 44.6207 82.3956 44.8449 82.2672 45.041L81.0356 46.9291C80.5274 47.7093 80.1497 48.2274 79.8984 48.4856C79.7813 48.5006 79.5035 48.5478 79.0615 48.6289C79.0993 47.8072 79.1182 47.0196 79.1182 46.2639C79.1182 44.7357 79.1013 43.8971 79.0654 43.7502C79.0295 43.6031 78.8632 43.5297 78.5667 43.5297H78.1662V43.2131C78.6555 43.2357 79.0861 43.247 79.4601 43.247C79.8606 43.247 80.3745 43.2357 80.9996 43.2131V43.5297H80.6049C80.4935 43.5297 80.3839 43.5485 80.2781 43.5843C80.1723 43.622 80.11 43.6785 80.0891 43.7559C80.0684 43.833 80.0589 44.1307 80.0589 44.6453V47.0214C80.0589 47.2569 80.0458 47.4662 80.0194 47.6471C80.1534 47.5245 80.4916 47.0515 81.0356 46.2281L81.8479 45.0013C81.999 44.7734 82.3768 44.1779 82.9851 43.2131C83.2986 43.2357 83.5536 43.247 83.7482 43.247C83.8596 43.247 84.2507 43.2357 84.9213 43.2131ZM93.2066 43.2131V43.5297H92.8137C92.4812 43.5297 92.3074 43.6276 92.2904 43.8218C92.2732 44.0177 92.266 44.6829 92.266 45.8192L92.2716 47.1213C92.2754 47.566 92.2829 47.8185 92.2942 47.877C92.3055 47.9353 92.3472 47.9919 92.4208 48.0428C92.4945 48.0937 92.6248 48.12 92.8137 48.12H93.2066V48.4366C92.6172 48.4139 92.1053 48.4027 91.6747 48.4027C91.2931 48.4027 90.8643 48.4139 90.3845 48.4366V48.12H90.783C91.0455 48.12 91.2005 48.0616 91.2496 47.9466C91.3006 47.8298 91.3252 47.355 91.3252 46.5164V44.6754L91.3196 43.8764L91.3252 43.5843C91.0266 43.5485 90.5865 43.5297 90.0066 43.5297C89.7856 43.5297 89.4872 43.541 89.115 43.5637C89.115 45.2011 89.0659 46.2884 88.9658 46.8273C88.8676 47.3644 88.6616 47.7808 88.348 48.0748C88.0345 48.3687 87.7341 48.5157 87.447 48.5157C87.3299 48.5157 87.1864 48.4893 87.0182 48.4384L87.0352 48.2237C87.0464 48.1182 87.0502 48.0503 87.0502 48.022C87.0502 48.0031 87.0464 47.9485 87.0352 47.8562C87.0276 47.8016 87.022 47.7206 87.0182 47.615L87.1429 47.5547C87.2941 47.7431 87.4772 47.8374 87.6944 47.8374C88.0307 47.8374 88.2706 47.63 88.4179 47.2155C88.5654 46.7991 88.639 45.8927 88.639 44.4945C88.639 44.0969 88.6202 43.8369 88.5842 43.7143C88.5465 43.5918 88.384 43.5297 88.0987 43.5297H87.6983V43.2131C88.2555 43.2357 88.7202 43.247 89.0943 43.247H91.6728C92.0429 43.247 92.553 43.2357 93.2066 43.2131ZM95.7134 45.789C95.7134 45.2802 95.8306 44.8224 96.0667 44.4116C96.3028 44.0008 96.6352 43.6805 97.0603 43.4486C97.4873 43.2168 97.9708 43.1 98.513 43.1C99.2988 43.1 99.9278 43.3318 100.4 43.7953C100.872 44.259 101.108 44.877 101.108 45.6515C101.108 46.5635 100.801 47.289 100.185 47.8261C99.635 48.3084 98.9758 48.5496 98.2089 48.5496C97.4721 48.5496 96.8713 48.3028 96.4086 47.8072C95.9458 47.3117 95.7134 46.6389 95.7134 45.789ZM96.7562 45.3989C96.7562 46.1584 96.913 46.8066 97.2247 47.3455C97.5364 47.8844 97.984 48.1539 98.5716 48.1539C99.0173 48.1539 99.3781 47.9843 99.6539 47.6471C99.9279 47.3078 100.066 46.7953 100.066 46.1057C100.066 45.5516 99.9845 45.0692 99.8221 44.6622C99.6596 44.257 99.4461 43.9593 99.1798 43.7747C98.9152 43.5882 98.6168 43.4957 98.2901 43.4957C97.9973 43.4957 97.7347 43.5693 97.5005 43.7162C97.2662 43.8632 97.0943 44.061 96.9829 44.3079C96.8317 44.6414 96.7562 45.007 96.7562 45.3989ZM110.369 43.2131V43.5297H109.976C109.643 43.5297 109.469 43.6276 109.452 43.8255C109.437 44.0215 109.428 44.6867 109.428 45.8192L109.439 47.1269C109.443 47.5678 109.45 47.8185 109.462 47.877C109.473 47.9353 109.515 47.9919 109.586 48.0428C109.658 48.0937 109.789 48.12 109.976 48.12H110.369V48.4366C109.779 48.4139 109.267 48.4027 108.837 48.4027C108.459 48.4027 108.03 48.4139 107.546 48.4366V48.12H107.945C108.189 48.12 108.34 48.0748 108.398 47.9825C108.457 47.89 108.487 47.5886 108.487 47.0779V44.6471C108.487 44.2759 108.515 43.9914 108.57 43.7936C108.438 43.9951 108.308 44.1873 108.177 44.3663C107.998 44.6207 107.843 44.8449 107.714 45.041L106.483 46.9291C105.975 47.7093 105.597 48.2274 105.346 48.4856C105.229 48.5006 104.951 48.5478 104.509 48.6289C104.547 47.8072 104.565 47.0196 104.565 46.2639C104.565 44.7357 104.549 43.8971 104.513 43.7502C104.477 43.6031 104.31 43.5297 104.014 43.5297H103.613V43.2131C104.103 43.2357 104.533 43.247 104.907 43.247C105.308 43.247 105.822 43.2357 106.447 43.2131V43.5297H106.052C105.941 43.5297 105.831 43.5485 105.725 43.5843C105.62 43.622 105.557 43.6785 105.536 43.7559C105.516 43.833 105.506 44.1307 105.506 44.6453V47.0214C105.506 47.2569 105.493 47.4662 105.467 47.6471C105.601 47.5245 105.939 47.0515 106.483 46.2281L107.295 45.0013C107.446 44.7734 107.824 44.1779 108.432 43.2131C108.746 43.2357 109.001 43.247 109.195 43.247C109.307 43.247 109.698 43.2357 110.369 43.2131ZM105.799 42.0524L105.756 41.8921C106.088 41.6962 106.345 41.5228 106.53 41.3701C107.131 41.6999 107.852 41.894 108.697 41.9525L108.725 42.1258L108.366 42.2973L107.85 42.3086C107.323 42.3086 106.64 42.2238 105.799 42.0524ZM120.229 45.6722V46.3807C120.229 47.3041 120.259 47.8261 120.318 47.9429C120.377 48.0616 120.562 48.12 120.873 48.12H121.204V48.4366C121.196 48.4366 121.096 48.4328 120.904 48.4271C120.38 48.4102 120.031 48.4027 119.857 48.4027C119.819 48.4027 119.328 48.4139 118.382 48.4366V48.12H118.703C119.024 48.12 119.202 48.0447 119.236 47.8939C119.271 47.7431 119.288 47.2381 119.288 46.3807V44.7394C119.288 44.1572 119.264 43.8105 119.213 43.6974C119.164 43.5862 119.005 43.5297 118.737 43.5297H118.336V43.2131C118.814 43.2357 119.245 43.247 119.63 43.247C120.208 43.247 120.726 43.2357 121.181 43.2131V43.5297H120.764C120.643 43.5297 120.53 43.5485 120.427 43.5882C120.326 43.6258 120.265 43.6861 120.252 43.7671C120.237 43.8482 120.229 44.1873 120.229 44.7847V45.3632L120.295 45.4028C120.779 45.0503 121.34 44.568 121.975 43.9574L122.772 43.2131H123.879V43.5297L123.68 43.5334C123.533 43.5334 123.297 43.6389 122.968 43.8519C122.641 44.0668 122.054 44.5209 121.208 45.22C121.784 45.7495 122.521 46.5352 123.418 47.5791C123.714 47.9353 123.985 48.1162 124.23 48.12V48.4366C124.207 48.4366 124.134 48.4328 124.009 48.4271C123.745 48.4102 123.588 48.4027 123.535 48.4027C123.448 48.4027 123.227 48.4139 122.874 48.4366C121.878 47.1835 121.019 46.262 120.295 45.6722H120.229ZM126.601 45.789C126.601 45.2802 126.718 44.8224 126.954 44.4116C127.19 44.0008 127.523 43.6805 127.948 43.4486C128.375 43.2168 128.858 43.1 129.4 43.1C130.186 43.1 130.815 43.3318 131.288 43.7953C131.76 44.259 131.996 44.877 131.996 45.6515C131.996 46.5635 131.688 47.289 131.072 47.8261C130.523 48.3084 129.863 48.5496 129.096 48.5496C128.36 48.5496 127.759 48.3028 127.296 47.8072C126.833 47.3117 126.601 46.6389 126.601 45.789ZM127.644 45.3989C127.644 46.1584 127.8 46.8066 128.112 47.3455C128.424 47.8844 128.872 48.1539 129.459 48.1539C129.905 48.1539 130.266 47.9843 130.541 47.6471C130.815 47.3078 130.953 46.7953 130.953 46.1057C130.953 45.5516 130.872 45.0692 130.71 44.6622C130.547 44.257 130.334 43.9593 130.067 43.7747C129.803 43.5882 129.504 43.4957 129.178 43.4957C128.885 43.4957 128.622 43.5693 128.388 43.7162C128.154 43.8632 127.982 44.061 127.87 44.3079C127.719 44.6414 127.644 45.007 127.644 45.3989ZM141.981 43.2131V43.5297H141.589C141.256 43.5297 141.082 43.6276 141.065 43.8218C141.048 44.0177 141.041 44.7017 141.041 45.8738L141.046 46.8461C141.05 47.4925 141.06 47.8467 141.077 47.9071C141.094 47.9674 141.148 48.0183 141.243 48.0597C141.337 48.0993 141.452 48.12 141.589 48.12H141.982V48.4366C141.394 48.4139 140.882 48.4027 140.446 48.4027C140.068 48.4027 139.639 48.4139 139.159 48.4366V48.12H139.55C139.8 48.12 139.953 48.0692 140.011 47.9655C140.07 47.8618 140.1 47.4172 140.1 46.6276V44.1138L139.157 46.0849C138.787 46.8537 138.442 47.6489 138.122 48.4705H137.759C137.62 48.0805 137.45 47.664 137.251 47.2231L136.904 46.4335L135.872 43.9857V46.5673L135.878 47.4021C135.882 47.6848 135.891 47.8525 135.906 47.9015C135.92 47.9522 135.967 47.9994 136.044 48.0484C136.122 48.0954 136.243 48.12 136.409 48.12H136.802V48.4366C136.791 48.4366 136.687 48.4328 136.492 48.4291C136.046 48.4102 135.735 48.4027 135.557 48.4027C135.421 48.4027 135.07 48.4139 134.501 48.4366V48.12H134.898C135.179 48.12 135.342 48.0521 135.381 47.9165C135.421 47.7789 135.442 47.1119 135.442 45.9133C135.442 44.615 135.423 43.8933 135.387 43.7483C135.349 43.6031 135.187 43.5297 134.898 43.5297H134.501V43.2131L134.799 43.2225C135.185 43.2395 135.387 43.247 135.4 43.247C135.404 43.247 135.557 43.2413 135.859 43.2281C136.165 43.2112 136.318 43.2018 136.322 43.2018C136.333 43.2018 136.39 43.2056 136.494 43.2131C136.817 44.046 137.119 44.7827 137.399 45.4273L138.215 47.3059L139.157 45.2784C139.522 44.4907 139.747 43.9857 139.836 43.7652L140.062 43.2131C140.31 43.2357 140.531 43.247 140.723 43.247C140.873 43.247 141.292 43.2357 141.981 43.2131ZM148.011 48.12H148.412C148.704 48.12 148.871 48.0465 148.909 47.9015C148.944 47.7563 148.963 47.2683 148.963 46.4354V44.8902C148.963 44.8488 148.96 44.7526 148.952 44.6018C148.933 44.2967 148.925 43.9706 148.925 43.6258C148.682 43.5994 148.362 43.5862 147.97 43.5862H147.102C146.781 43.5862 146.477 43.5994 146.186 43.6258C146.171 44.0592 146.164 44.4813 146.164 44.8902V46.4354C146.164 47.2023 146.167 47.6451 146.177 47.7657C146.186 47.8882 146.23 47.9769 146.307 48.0352C146.385 48.0918 146.519 48.12 146.706 48.12H147.104V48.4366C146.515 48.4139 146.003 48.4027 145.569 48.4027C145.193 48.4027 144.764 48.4139 144.282 48.4366V48.12H144.679C144.96 48.12 145.123 48.0521 145.162 47.9165C145.202 47.7789 145.223 47.1119 145.223 45.9133C145.223 44.615 145.204 43.8933 145.168 43.7483C145.13 43.6031 144.968 43.5297 144.679 43.5297H144.282V43.2131C144.743 43.2357 145.266 43.247 145.852 43.247H149.375C149.724 43.247 150.214 43.2357 150.845 43.2131V43.5297H150.452C150.115 43.5297 149.942 43.6276 149.927 43.8255C149.911 44.0215 149.904 44.7056 149.904 45.8738L149.91 46.8895C149.913 47.5189 149.923 47.8599 149.94 47.9165C149.957 47.9711 150.012 48.0183 150.106 48.0597C150.201 48.0993 150.316 48.12 150.452 48.12H150.845V48.4366C150.252 48.4139 149.74 48.4027 149.305 48.4027C148.924 48.4027 148.493 48.4139 148.011 48.4366L148.011 48.12ZM159.13 43.2131V43.5297H158.737C158.405 43.5297 158.231 43.6276 158.214 43.8218C158.197 44.0177 158.189 44.6829 158.189 45.8192L158.195 47.1213C158.199 47.566 158.206 47.8185 158.218 47.877C158.229 47.9353 158.271 47.9919 158.344 48.0428C158.418 48.0937 158.548 48.12 158.737 48.12H159.13V48.4366C158.541 48.4139 158.029 48.4027 157.598 48.4027C157.217 48.4027 156.788 48.4139 156.308 48.4366V48.12H156.707C156.969 48.12 157.124 48.0616 157.173 47.9466C157.224 47.8298 157.249 47.355 157.249 46.5164V44.6754L157.243 43.8764L157.249 43.5843C156.95 43.5485 156.51 43.5297 155.93 43.5297C155.709 43.5297 155.411 43.541 155.038 43.5637C155.038 45.2011 154.989 46.2884 154.889 46.8273C154.791 47.3644 154.585 47.7808 154.272 48.0748C153.958 48.3687 153.658 48.5157 153.37 48.5157C153.253 48.5157 153.11 48.4893 152.942 48.4384L152.959 48.2237C152.97 48.1182 152.974 48.0503 152.974 48.022C152.974 48.0031 152.97 47.9485 152.959 47.8562C152.951 47.8016 152.945 47.7206 152.942 47.615L153.066 47.5547C153.218 47.7431 153.401 47.8374 153.618 47.8374C153.954 47.8374 154.194 47.63 154.341 47.2155C154.489 46.7991 154.562 45.8927 154.562 44.4945C154.562 44.0969 154.544 43.8369 154.508 43.7143C154.47 43.5918 154.307 43.5297 154.022 43.5297H153.622V43.2131C154.179 43.2357 154.644 43.247 155.018 43.247H157.596C157.966 43.247 158.477 43.2357 159.13 43.2131ZM162.612 45.7683C162.63 46.4938 162.816 47.0441 163.171 47.4209C163.524 47.796 163.989 47.9843 164.563 47.9843C164.82 47.9843 165.077 47.9409 165.33 47.8562C165.585 47.7714 165.838 47.6432 166.087 47.4718L166.182 47.5547L166.004 48.0183C165.698 48.1953 165.383 48.3273 165.06 48.4159C164.735 48.5045 164.401 48.5496 164.059 48.5496C163.309 48.5496 162.706 48.3123 162.247 47.8393C161.788 47.3663 161.558 46.7256 161.558 45.9153C161.558 45.2973 161.686 44.7621 161.945 44.3097C162.115 44.0102 162.428 43.7351 162.886 43.4807C163.341 43.2263 163.787 43.1 164.217 43.1C164.869 43.1 165.387 43.2922 165.768 43.6748C166.15 44.0592 166.341 44.5944 166.341 45.284L166.329 45.61C166.086 45.6685 165.855 45.7061 165.634 45.725C165.239 45.7532 164.691 45.7683 163.993 45.7683H162.612ZM162.623 45.3613C163.195 45.3839 163.826 45.3952 164.518 45.3952C164.793 45.3952 165.062 45.382 165.32 45.3556V45.0466C165.32 44.7225 165.256 44.4154 165.126 44.1251C165.045 43.9442 164.903 43.7953 164.701 43.6748C164.497 43.5561 164.263 43.4957 163.996 43.4957C163.583 43.4957 163.252 43.6465 163.005 43.9498C162.757 44.2514 162.631 44.7225 162.623 45.3613ZM170.672 45.6722V46.3807C170.672 47.3041 170.702 47.8261 170.761 47.9429C170.82 48.0616 171.005 48.12 171.316 48.12H171.647V48.4366C171.639 48.4366 171.539 48.4328 171.347 48.4271C170.823 48.4102 170.474 48.4027 170.3 48.4027C170.262 48.4027 169.771 48.4139 168.825 48.4366V48.12H169.146C169.467 48.12 169.645 48.0447 169.679 47.8939C169.715 47.7431 169.731 47.2381 169.731 46.3807V44.7394C169.731 44.1572 169.707 43.8105 169.656 43.6974C169.607 43.5862 169.448 43.5297 169.18 43.5297H168.779V43.2131C169.257 43.2357 169.688 43.247 170.073 43.247C170.652 43.247 171.169 43.2357 171.624 43.2131V43.5297H171.207C171.086 43.5297 170.973 43.5485 170.871 43.5882C170.769 43.6258 170.708 43.6861 170.695 43.7671C170.68 43.8482 170.672 44.1873 170.672 44.7847V45.3632L170.738 45.4028C171.222 45.0503 171.783 44.568 172.418 43.9574L173.215 43.2131H174.322V43.5297L174.123 43.5334C173.976 43.5334 173.74 43.6389 173.411 43.8519C173.084 44.0668 172.497 44.5209 171.651 45.22C172.227 45.7495 172.964 46.5352 173.861 47.5791C174.157 47.9353 174.428 48.1162 174.673 48.12V48.4366C174.65 48.4366 174.577 48.4328 174.452 48.4271C174.188 48.4102 174.031 48.4027 173.978 48.4027C173.891 48.4027 173.67 48.4139 173.317 48.4366C172.321 47.1835 171.462 46.262 170.738 45.6722H170.672ZM181.134 47.6564L181.283 47.7884L181.056 48.1426C180.805 48.2783 180.546 48.3801 180.28 48.4479C180.015 48.5157 179.743 48.5496 179.466 48.5496C178.924 48.5496 178.463 48.446 178.085 48.2406C177.707 48.0352 177.414 47.7356 177.206 47.3455C177.001 46.9555 176.897 46.4918 176.897 45.9549C176.897 45.48 176.976 45.0674 177.135 44.7149C177.293 44.3626 177.516 44.0874 177.802 43.8896C178.089 43.6917 178.446 43.4957 178.875 43.3035C179.177 43.1679 179.515 43.1 179.887 43.1C180.172 43.1 180.416 43.1226 180.622 43.1698C180.826 43.215 181.047 43.2978 181.283 43.4147C181.192 43.9009 181.143 44.389 181.136 44.8752H180.784V44.5981C180.784 44.3626 180.75 44.1968 180.682 44.0987C180.614 44.0007 180.458 43.9047 180.214 43.8085C179.97 43.7125 179.704 43.6653 179.417 43.6653C178.918 43.6653 178.534 43.818 178.264 44.1214C177.994 44.4248 177.86 44.8789 177.86 45.4819C177.86 46.2602 178.06 46.882 178.459 47.3492C178.816 47.7732 179.279 47.9843 179.844 47.9843C180.065 47.9843 180.282 47.9561 180.497 47.9015C180.711 47.8449 180.922 47.7639 181.134 47.6564Z" fill="white"/>
</svg>
