<svg width="24" height="24" viewBox="0 0 24 24" fill="none" xmlns="http://www.w3.org/2000/svg">
<mask id="path-1-inside-1_322_46" fill="white">
<path d="M7.85913 8.77077C8.6073 10.329 9.6272 11.7895 10.9188 13.0812C12.2105 14.3728 13.671 15.3927 15.2292 16.1409C15.3633 16.2052 15.4303 16.2374 15.5151 16.2621C15.8165 16.35 16.1865 16.2869 16.4417 16.1041C16.5136 16.0527 16.575 15.9912 16.6979 15.8684C17.0737 15.4926 17.2616 15.3047 17.4506 15.1818C18.1631 14.7185 19.0818 14.7185 19.7943 15.1818C19.9833 15.3047 20.1712 15.4926 20.547 15.8684L20.7565 16.0778C21.3278 16.6491 21.6134 16.9348 21.7686 17.2415C22.0771 17.8516 22.0771 18.5721 21.7686 19.1822C21.6134 19.489 21.3278 19.7746 20.7565 20.3459L20.587 20.5154C20.0177 21.0847 19.7331 21.3694 19.346 21.5868C18.9166 21.828 18.2496 22.0015 17.757 22C17.3131 21.9987 17.0097 21.9126 16.403 21.7403C13.1422 20.8148 10.0653 19.0686 7.49836 16.5016C4.93139 13.9347 3.18516 10.8578 2.25965 7.59701C2.08744 6.99026 2.00133 6.68688 2.00001 6.24298C1.99854 5.75042 2.172 5.08342 2.41324 4.65397C2.63065 4.26695 2.91531 3.98229 3.48463 3.41297L3.65408 3.24352C4.22535 2.67224 4.51099 2.3866 4.81776 2.23144C5.42787 1.92285 6.14837 1.92285 6.75847 2.23144C7.06524 2.3866 7.35088 2.67224 7.92216 3.24352L8.13163 3.45299C8.50744 3.8288 8.69535 4.01671 8.8182 4.20566C9.2815 4.91824 9.2815 5.83687 8.8182 6.54945C8.69535 6.7384 8.50744 6.92631 8.13163 7.30212C8.00875 7.425 7.94731 7.48644 7.89588 7.55826C7.71313 7.81348 7.65003 8.18355 7.73788 8.48491C7.7626 8.56972 7.79478 8.63674 7.85913 8.77077Z"/>
</mask>
<path d="M7.85913 8.77077C8.6073 10.329 9.6272 11.7895 10.9188 13.0812C12.2105 14.3728 13.671 15.3927 15.2292 16.1409C15.3633 16.2052 15.4303 16.2374 15.5151 16.2621C15.8165 16.35 16.1865 16.2869 16.4417 16.1041C16.5136 16.0527 16.575 15.9912 16.6979 15.8684C17.0737 15.4926 17.2616 15.3047 17.4506 15.1818C18.1631 14.7185 19.0818 14.7185 19.7943 15.1818C19.9833 15.3047 20.1712 15.4926 20.547 15.8684L20.7565 16.0778C21.3278 16.6491 21.6134 16.9348 21.7686 17.2415C22.0771 17.8516 22.0771 18.5721 21.7686 19.1822C21.6134 19.489 21.3278 19.7746 20.7565 20.3459L20.587 20.5154C20.0177 21.0847 19.7331 21.3694 19.346 21.5868C18.9166 21.828 18.2496 22.0015 17.757 22C17.3131 21.9987 17.0097 21.9126 16.403 21.7403C13.1422 20.8148 10.0653 19.0686 7.49836 16.5016C4.93139 13.9347 3.18516 10.8578 2.25965 7.59701C2.08744 6.99026 2.00133 6.68688 2.00001 6.24298C1.99854 5.75042 2.172 5.08342 2.41324 4.65397C2.63065 4.26695 2.91531 3.98229 3.48463 3.41297L3.65408 3.24352C4.22535 2.67224 4.51099 2.3866 4.81776 2.23144C5.42787 1.92285 6.14837 1.92285 6.75847 2.23144C7.06524 2.3866 7.35088 2.67224 7.92216 3.24352L8.13163 3.45299C8.50744 3.8288 8.69535 4.01671 8.8182 4.20566C9.2815 4.91824 9.2815 5.83687 8.8182 6.54945C8.69535 6.7384 8.50744 6.92631 8.13163 7.30212C8.00875 7.425 7.94731 7.48644 7.89588 7.55826C7.71313 7.81348 7.65003 8.18355 7.73788 8.48491C7.7626 8.56972 7.79478 8.63674 7.85913 8.77077Z" fill="#09301D"/>
<path d="M7.85913 8.77077L6.95765 9.20359L6.95765 9.20359L7.85913 8.77077ZM15.2292 16.1409L15.6621 15.2394L15.6621 15.2394L15.2292 16.1409ZM2.25965 7.59701L3.22165 7.32397L2.25965 7.59701ZM16.403 21.7403L16.676 20.7783L16.403 21.7403ZM20.7565 16.0778L20.0494 16.785L20.0494 16.785L20.7565 16.0778ZM20.547 15.8684L21.2541 15.1613V15.1613L20.547 15.8684ZM19.7943 15.1818L20.3394 14.3434V14.3434L19.7943 15.1818ZM17.4506 15.1818L17.9956 16.0202L17.9956 16.0202L17.4506 15.1818ZM21.7686 19.1822L20.8762 18.7309L21.7686 19.1822ZM21.7686 17.2415L20.8762 17.6929L21.7686 17.2415ZM8.8182 4.20566L9.65658 3.66057L9.65658 3.66057L8.8182 4.20566ZM8.8182 6.54945L7.97982 6.00436L7.97982 6.00436L8.8182 6.54945ZM4.81776 2.23144L4.36642 1.33909L4.36642 1.33909L4.81776 2.23144ZM6.75847 2.23144L6.30712 3.12379L6.75847 2.23144ZM17.757 22L17.76 21L17.757 22ZM19.346 21.5868L18.8563 20.7149L19.346 21.5868ZM2.00001 6.24298L3 6.24001V6.24001L2.00001 6.24298ZM2.41324 4.65397L1.54139 4.1642L1.54138 4.1642L2.41324 4.65397ZM15.5151 16.2621L15.7949 15.3021H15.7949L15.5151 16.2621ZM16.4417 16.1041L17.0239 16.9172L17.0239 16.9172L16.4417 16.1041ZM7.73788 8.48491L6.77784 8.76477L6.77784 8.76477L7.73788 8.48491ZM7.89588 7.55826L7.08283 6.97607L7.08283 6.97607L7.89588 7.55826ZM11.6259 12.3741C10.4152 11.1633 9.4606 9.79588 8.76061 8.33795L6.95765 9.20359C7.75399 10.8622 8.83919 12.4157 10.2117 13.7883L11.6259 12.3741ZM15.6621 15.2394C14.2041 14.5394 12.8367 13.5848 11.6259 12.3741L10.2117 13.7883C11.5843 15.1608 13.1378 16.246 14.7964 17.0423L15.6621 15.2394ZM8.20546 15.7945C5.76215 13.3512 4.10179 10.4249 3.22165 7.32397L1.29765 7.87006C2.26852 11.2906 4.10063 14.5181 6.79125 17.2087L8.20546 15.7945ZM16.676 20.7783C13.5751 19.8982 10.6488 18.2378 8.20546 15.7945L6.79125 17.2087C9.48187 19.8994 12.7094 21.7315 16.1299 22.7023L16.676 20.7783ZM4.19174 4.12007L4.36119 3.95062L2.94697 2.53641L2.77752 2.70586L4.19174 4.12007ZM7.21505 3.95062L7.42452 4.1601L8.83874 2.74589L8.62926 2.53641L7.21505 3.95062ZM21.2941 21.2225L21.4636 21.053L20.0494 19.6388L19.8799 19.8083L21.2941 21.2225ZM21.4636 15.3707L21.2541 15.1613L19.8399 16.5755L20.0494 16.785L21.4636 15.3707ZM21.2541 15.1613C20.9144 14.8216 20.6384 14.5378 20.3394 14.3434L19.2492 16.0202C19.3282 16.0715 19.428 16.1636 19.8399 16.5755L21.2541 15.1613ZM17.405 16.5755C17.8169 16.1636 17.9167 16.0715 17.9956 16.0202L16.9055 14.3434C16.6065 14.5378 16.3305 14.8216 15.9908 15.1613L17.405 16.5755ZM20.3394 14.3434C19.2954 13.6646 17.9495 13.6646 16.9055 14.3434L17.9956 16.0202C18.3768 15.7724 18.8681 15.7724 19.2492 16.0202L20.3394 14.3434ZM21.4636 21.053C21.9793 20.5373 22.4154 20.119 22.6609 19.6336L20.8762 18.7309C20.8114 18.859 20.6762 19.012 20.0494 19.6388L21.4636 21.053ZM20.0494 16.785C20.6762 17.4118 20.8114 17.5648 20.8762 17.6929L22.6609 16.7902C22.4154 16.3048 21.9793 15.8864 21.4636 15.3707L20.0494 16.785ZM22.6609 19.6336C23.113 18.7397 23.113 17.6841 22.6609 16.7902L20.8762 17.6929C21.0413 18.0192 21.0413 18.4046 20.8762 18.7309L22.6609 19.6336ZM7.42452 4.1601C7.83644 4.57201 7.92852 4.67184 7.97982 4.75075L9.65658 3.66057C9.46218 3.36157 9.17845 3.0856 8.83874 2.74589L7.42452 4.1601ZM8.83874 8.00922C9.17844 7.66952 9.46218 7.39354 9.65658 7.09454L7.97982 6.00436C7.92852 6.08327 7.83644 6.1831 7.42452 6.59501L8.83874 8.00922ZM7.97982 4.75075C8.22762 5.13188 8.22762 5.62323 7.97982 6.00436L9.65657 7.09454C10.3354 6.05052 10.3354 4.70459 9.65658 3.66057L7.97982 4.75075ZM4.36119 3.95062C4.98804 3.32377 5.141 3.18859 5.26911 3.12379L4.36642 1.33909C3.88099 1.58462 3.46267 2.02072 2.94697 2.53641L4.36119 3.95062ZM8.62926 2.53641C8.11357 2.02072 7.69525 1.58462 7.20982 1.33909L6.30712 3.12379C6.43524 3.18859 6.58819 3.32377 7.21505 3.95062L8.62926 2.53641ZM5.26911 3.12379C5.59543 2.95874 5.9808 2.95874 6.30712 3.12379L7.20982 1.33909C6.31594 0.886969 5.2603 0.88697 4.36642 1.33909L5.26911 3.12379ZM16.1299 22.7023C16.7189 22.8695 17.1514 22.9982 17.754 23L17.76 21C17.4748 20.9991 17.3006 20.9556 16.676 20.7783L16.1299 22.7023ZM19.8799 19.8083C19.28 20.4082 19.0981 20.579 18.8563 20.7149L19.8358 22.4586C20.368 22.1597 20.7554 21.7612 21.2941 21.2225L19.8799 19.8083ZM17.754 23C18.4192 23.002 19.2559 22.7844 19.8358 22.4586L18.8563 20.7149C18.5773 20.8716 18.08 21.0009 17.76 21L17.754 23ZM3.22165 7.32397C3.04439 6.69941 3.00085 6.52517 3 6.24001L1.00001 6.24596C1.00181 6.84859 1.13049 7.28111 1.29765 7.87006L3.22165 7.32397ZM2.77752 2.70586C2.2388 3.24459 1.84033 3.63204 1.54139 4.1642L3.2851 5.14373C3.42097 4.90186 3.59182 4.71999 4.19174 4.12007L2.77752 2.70586ZM3 6.24001C2.99905 5.91999 3.12837 5.42274 3.2851 5.14373L1.54138 4.1642C1.21563 4.74409 0.998034 5.58084 1.00001 6.24596L3 6.24001ZM14.7964 17.0423C14.9116 17.0976 15.0563 17.17 15.2352 17.2222L15.7949 15.3021C15.8014 15.304 15.8037 15.3055 15.7894 15.2993C15.78 15.2952 15.7663 15.289 15.7444 15.2787C15.7221 15.2682 15.6965 15.2559 15.6621 15.2394L14.7964 17.0423ZM15.9908 15.1613C15.925 15.2271 15.8922 15.2596 15.8674 15.2829C15.8478 15.3012 15.849 15.2986 15.8596 15.2911L17.0239 16.9172C17.1775 16.8072 17.3033 16.6771 17.405 16.5755L15.9908 15.1613ZM15.2352 17.2222C15.8313 17.3959 16.5191 17.2786 17.0239 16.9172L15.8596 15.2911C15.866 15.2864 15.8664 15.2873 15.8589 15.2903C15.8516 15.2933 15.8408 15.2966 15.8276 15.2988C15.8145 15.3011 15.8031 15.3015 15.7953 15.3012C15.7873 15.3008 15.7873 15.2999 15.7949 15.3021L15.2352 17.2222ZM8.76061 8.33795C8.74406 8.30347 8.73178 8.27789 8.7213 8.25562C8.71098 8.2337 8.70477 8.21999 8.70071 8.21065C8.69447 8.1963 8.69604 8.1986 8.69792 8.20506L6.77784 8.76477C6.83001 8.94374 6.90236 9.08844 6.95765 9.20359L8.76061 8.33795ZM7.42452 6.59501C7.32287 6.69667 7.19282 6.82247 7.08283 6.97607L8.70894 8.14045C8.70137 8.15102 8.69882 8.15217 8.71712 8.13261C8.74038 8.10776 8.77293 8.07503 8.83874 8.00922L7.42452 6.59501ZM8.69792 8.20506C8.70015 8.21271 8.69918 8.21274 8.69883 8.20472C8.69848 8.19686 8.69893 8.18553 8.70118 8.17237C8.70342 8.15921 8.70675 8.14837 8.70968 8.14107C8.71267 8.13362 8.71358 8.13397 8.70894 8.14044L7.08283 6.97607C6.72138 7.48085 6.60409 8.16872 6.77784 8.76477L8.69792 8.20506Z" fill="#09301D" mask="url(#path-1-inside-1_322_46)"/>
</svg>
