<svg width="142" height="178" viewBox="0 0 142 178" fill="none" xmlns="http://www.w3.org/2000/svg">
<path d="M0 0H56.75C67.9167 0 77.1667 1.58333 84.5 4.75C91.8333 7.75 97.5833 11.5833 101.75 16.25C106.083 20.75 109.083 25.6667 110.75 31C112.583 36.3333 113.5 41.25 113.5 45.75C113.5 50.75 112.667 55.9167 111 61.25C109.333 66.4167 106.667 71.25 103 75.75C99.3333 80.25 94.5833 84 88.75 87C83.0833 90 76.25 91.75 68.25 92.25V93.25L70.75 94.5C72.75 95.5 74.4167 96.75 75.75 98.25C77.25 99.75 79.0833 102.167 81.25 105.5C83.5833 108.833 86.6667 113.583 90.5 119.75C94.3333 125.75 99.75 133.833 106.75 144C109.083 147.5 111.333 150.667 113.5 153.5C115.667 156.167 117.917 158.5 120.25 160.5C122.583 162.333 125.083 163.75 127.75 164.75C130.417 165.75 133.5 166.25 137 166.25C137.833 166.25 138.667 166.25 139.5 166.25C140.333 166.083 141.167 165.917 142 165.75V175C139.667 176.333 137.333 177.167 135 177.5C132.667 177.833 129.667 178 126 178C121 178 116.667 177.333 113 176C109.5 174.667 106.333 172.917 103.5 170.75C100.667 168.417 98 165.667 95.5 162.5C93.1667 159.333 90.75 155.833 88.25 152L68.5 122.75C65.5 118.083 62.9167 114.167 60.75 111C58.5833 107.833 56.25 105.25 53.75 103.25C51.25 101.25 48.4167 99.8333 45.25 99C42.25 98.1667 38.4167 97.75 33.75 97.75H22.75V175H0V0ZM22.75 11V86.5H48.5C55.1667 86.5 61 85.3333 66 83C71.1667 80.6667 75.5 77.6667 79 74C82.5 70.1667 85.0833 66 86.75 61.5C88.5833 56.8333 89.5 52.25 89.5 47.75C89.5 42.4167 88.5 37.5 86.5 33C84.6667 28.5 81.9167 24.6667 78.25 21.5C74.5833 18.1667 70.1667 15.5833 65 13.75C60 11.9167 54.3333 11 48 11H22.75Z" fill="white"/>
</svg>
