<svg width="130" height="181" viewBox="0 0 130 181" fill="none" xmlns="http://www.w3.org/2000/svg">
<path d="M0 133.75H17C17.1667 136.583 17.8333 140.083 19 144.25C20.1667 148.25 22.4167 152.167 25.75 156C29.0833 159.833 33.9167 163.167 40.25 166C46.5833 168.667 55 170 65.5 170C78.6667 170 89.1667 167.5 97 162.5C105 157.5 109 149.583 109 138.75C109 130.083 106.5 123.167 101.5 118C96.5 112.833 90.1667 108.5 82.5 105C75 101.333 66.8333 98.0833 58 95.25C49.1667 92.4167 40.9167 89 33.25 85C25.75 81 19.5 76 14.5 70C9.5 64 7 56.0833 7 46.25C7 38.75 8.5 32.0833 11.5 26.25C14.6667 20.4167 18.8333 15.5833 24 11.75C29.3333 7.91666 35.4167 5 42.25 2.99999C49.25 0.999997 56.5833 0 64.25 0C71.5833 0 78.5833 0.916665 85.25 2.74999C92.0833 4.41666 98.1667 6.99999 103.5 10.5C108.833 13.8333 113.25 18 116.75 23C120.25 27.8333 122.5 33.3333 123.5 39.5H106.5C105.167 29.6667 100.667 22.5 93 18C85.5 13.3333 76.3333 11 65.5 11C59 11 53.25 11.8333 48.25 13.5C43.25 15 39 17.0833 35.5 19.75C32.1667 22.25 29.5833 25.25 27.75 28.75C26.0833 32.25 25.25 36 25.25 40C25.25 47.1667 27.8333 52.9167 33 57.25C38.1667 61.5833 44.5833 65.4167 52.25 68.75C60.0833 72.0833 68.5 75.25 77.5 78.25C86.6667 81.25 95.0833 85 102.75 89.5C110.583 93.8333 117.083 99.3333 122.25 106C127.417 112.5 130 120.917 130 131.25C130 138.75 128.5 145.583 125.5 151.75C122.5 157.917 118.25 163.167 112.75 167.5C107.25 171.833 100.583 175.167 92.75 177.5C85.0833 179.833 76.4167 181 66.75 181C57.25 181 48.5 179.917 40.5 177.75C32.5 175.417 25.5 172.25 19.5 168.25C13.6667 164.083 9 159.083 5.5 153.25C2.16667 147.417 0.333333 140.917 0 133.75Z" fill="white"/>
</svg>
