<svg width="32" height="32" viewBox="0 0 32 32" fill="none" xmlns="http://www.w3.org/2000/svg">
<path d="M27.0629 25.2552C27.9157 20.5336 29.5956 10.3016 29.9822 6.08662C30.081 5.02009 29.7889 3.98245 28.573 4.00023C27.6021 4.018 26.1155 4.55349 18.9557 7.63308C16.4488 8.71293 11.4372 10.946 3.92293 14.3322C2.70278 14.8343 2.06477 15.3254 2.00677 15.8053C1.89507 16.7252 3.17967 17.0141 4.79293 17.5562C6.10975 18.0006 7.87983 18.5183 8.79925 18.5383C9.63488 18.5561 10.5672 18.2006 11.5961 17.4696C18.6185 12.568 22.2424 10.0905 22.4701 10.0372C22.6291 9.99943 22.8503 9.95277 23.0029 10.0905C23.1554 10.2283 23.1382 10.4905 23.1232 10.5616C22.9943 11.1237 16.3994 17.3296 16.0192 17.7384C14.5692 19.296 12.9194 20.2492 15.465 21.9845C17.6668 23.4865 18.9493 24.4442 21.2177 25.9818C22.6677 26.9639 23.8041 28.1304 25.3014 27.9882C25.9888 27.9237 26.702 27.2549 27.0629 25.2552Z" fill="white"/>
</svg>
