<svg width="140" height="178" viewBox="0 0 140 178" fill="none" xmlns="http://www.w3.org/2000/svg">
<path d="M0 0H22.75V114.25C22.75 117.583 22.8333 120.917 23 124.25C23.1667 127.583 23.75 130.917 24.75 134.25C25.75 137.417 27.25 140.667 29.25 144C31.25 147.333 34.1667 150.667 38 154C42.8333 158.333 47.9167 161.583 53.25 163.75C58.75 165.917 65 167 72 167C80.1667 167 88 165.833 95.5 163.5C103 161.167 109.75 156.75 115.75 150.25C119.083 146.583 121.583 142.917 123.25 139.25C125.083 135.583 126.417 131.917 127.25 128.25C128.083 124.417 128.583 120.667 128.75 117C128.917 113.167 129 109.417 129 105.75V0H140V114C140 122.833 138.583 131.167 135.75 139C132.917 146.667 128.667 153.417 123 159.25C117.5 165.083 110.583 169.667 102.25 173C94.0833 176.333 84.6667 178 74 178C57 178 43.5833 175.667 33.75 171C23.9167 166.167 16.5 160.25 11.5 153.25C6.5 146.083 3.33333 138.417 2 130.25C0.666667 121.917 0 114.333 0 107.5V0Z" fill="white"/>
</svg>
