<svg width="32" height="32" viewBox="0 0 32 32" fill="none" xmlns="http://www.w3.org/2000/svg">
<path d="M16.6654 6.66667C18.5063 6.66667 19.9987 5.17428 19.9987 3.33333C19.9987 1.49238 18.5063 0 16.6654 0C14.8244 0 13.332 1.49238 13.332 3.33333C13.332 5.17428 14.8244 6.66667 16.6654 6.66667Z" fill="#09301D"/>
<path d="M27.2635 16.5364L23.4728 14.6404C23.0368 14.423 22.6688 14.0897 22.4101 13.6764L20.4368 10.5417C20.3648 10.4377 18.6755 7.99902 16.0008 7.99902H14.8288C13.2101 7.99902 11.5875 8.38169 10.1381 9.10569L7.34347 10.5044C6.31681 11.0164 5.55947 11.947 5.26481 13.0564L4.22081 16.991C4.03147 17.703 4.45681 18.4337 5.16747 18.6217C5.87947 18.807 6.61014 18.3857 6.79814 17.675L7.84214 13.7404C7.93947 13.371 8.19147 13.0604 8.53414 12.8897L11.3301 11.491C11.5928 11.359 11.8635 11.2444 12.1395 11.1444L10.7715 16.991C10.3701 18.7057 11.1595 20.511 12.6901 21.3804L17.9928 24.391C18.4088 24.6284 18.6675 25.0724 18.6675 25.551V30.6657C18.6675 31.4017 19.2635 31.999 20.0008 31.999C20.7381 31.999 21.3341 31.4017 21.3341 30.6657V25.551C21.3341 24.115 20.5595 22.783 19.3101 22.0724L16.7101 20.595L18.7608 12.883L20.1528 15.095C20.6728 15.9217 21.4088 16.5897 22.2821 17.0244L26.0715 18.919C26.2635 19.015 26.4661 19.059 26.6661 19.059C27.1555 19.059 27.6261 18.7897 27.8608 18.3217C28.1901 17.663 27.9235 16.8617 27.2648 16.5324L27.2635 16.5364Z" fill="#09301D"/>
<path d="M12.2521 23.8198C12.2414 23.8132 12.2307 23.8065 12.2201 23.8012C11.4627 23.3478 10.4814 23.7625 10.2814 24.6225L10.0774 25.5038L7.93074 30.1065C7.52008 30.9878 8.16274 31.9985 9.13608 31.9985C9.65074 31.9985 10.1201 31.7012 10.3401 31.2345L12.5454 26.5492L12.8494 25.2252C12.9761 24.6758 12.7347 24.1078 12.2507 23.8185L12.2521 23.8198Z" fill="#09301D"/>
</svg>
